<?xml version="1.0" encoding="utf-8"?>
<!-- Generator: Adobe Illustrator 23.0.3, SVG Export Plug-In . SVG Version: 6.00 Build 0)  -->
<svg version="1.0" id="Layer_1" xmlns="http://www.w3.org/2000/svg" xmlns:xlink="http://www.w3.org/1999/xlink" x="0px" y="0px"
	 viewBox="0 0 1581 441" enable-background="new 0 0 1581 441" xml:space="preserve">
<path d="M0,220.5C0,341.8,0.3,441,0.7,441c0.6,0,82.1-15.1,92.1-17.1l5.2-1v-81V261h31h31v-14.8c0-8.1,0.3-29.2,0.7-47l0.6-32.2
	h-31.6H98v-35.5V96h36.5c20.1,0,36.5-0.2,36.5-0.5c0-1.1,8-86.5,8.5-90.8l0.6-4.7H90H0V220.5z"/>
<path d="M1495.8,12.9l-79.8,6.6v199.2v199.2l3.3,0.5c2.9,0.5,157.4,11.7,160.5,11.6c0.9,0,1.2-10.6,1.2-49.5V331h-34h-34v-36v-36h29
	h29v-43v-43h-30h-30v-28.5V116l2.3-0.4c1.2-0.3,11.4-0.7,22.7-1.1c11.3-0.3,26-0.8,32.8-1.2l12.2-0.6V59.4V6l-2.7,0.1
	C1576.7,6.2,1539.6,9.2,1495.8,12.9z"/>
<path d="M983.5,26.7c1,10,12.4,160.7,12.2,160.9c-0.1,0.2-14.8-35.9-32.7-80.2c-17.8-44.3-32.8-81-33.2-81.7
	c-0.6-1.1-28.2,4-73.5,13.6l-4.3,0.9v171.9V384h44.5H941l-0.5-7.2c-1-13.4-4.7-124.2-4.3-128.6c0.3-3.9,3.3,2.9,31.7,71.5
	c17.2,41.7,31.8,76.2,32.2,76.8c0.6,0.6,14.5-0.3,38.1-2.3c20.5-1.8,37.3-3.4,37.3-3.5c0.1-0.1-0.4-72.2-1.1-160.2
	s-1.3-171.1-1.3-184.8L1073,21h-45h-45.1L983.5,26.7z"/>
<path d="M279.5,27.1c-59.8,4-92.7,44.9-103.1,127.9c-2.1,17.2-3,75.6-1.5,96c5,66.2,22.9,109.2,54.7,131.1
	c17.1,11.7,42.8,18,68.2,16.5c28.9-1.6,48.6-9.8,66.3-27.5c14.5-14.5,22.4-28.1,30-51.3c10.6-32.4,15.4-80.8,13-131.2
	c-2.7-56.4-11.2-91.5-28.7-118.4c-16.7-25.6-43.1-40.9-73.9-42.8c-4.9-0.3-10.1-0.6-11.5-0.8C291.6,26.5,285.6,26.7,279.5,27.1z
	 M293.6,105.7c7.3,7.9,10.4,39.4,10.4,106.8c0,83-5.2,117.5-16.6,110.1c-4.9-3.3-8.6-19.4-10.4-46.1c-1.3-19.5-1.3-108.8,0-127.5
	c1.9-26.4,5.3-41,10.4-44.5C290.2,102.5,290.7,102.6,293.6,105.7z"/>
<path d="M420,208.9V391h45.9h45.8l0.6-12.7c0.4-7.1,1.2-30.1,1.8-51.3c0.6-21.2,1.4-39.8,1.8-41.3c0.5-2.1,4.8,11.4,18,57
	c9.6,32.9,17.7,60.2,18.1,60.6c0.8,0.9,94.6-6.5,95.6-7.5c0.3-0.4-10.1-33.1-23.1-72.9l-23.6-72.2l5-4.4
	c16.6-14.5,30.3-42.5,34.2-70.2c1.7-12.1,0.6-42.1-2-53.2c-10-43.5-36.5-77.3-70.3-89.9c-14.7-5.4-13.5-5.3-83-5.7L420,26.9V208.9z
	 M523.1,113.1c7.1,3.5,12.9,12.5,16,24.9c2.1,8.3,1.8,34.6-0.5,43c-4.3,15.8-11.9,25-23.3,28.5l-2.3,0.6v-50V110l3.3,0.7
	C518,111,521.1,112.1,523.1,113.1z"/>
<path d="M643,74.5V121h25.5H694v134v134h48h48V263V137h26h26V90.5V44l-2.2-0.4C837.7,43.1,647,27.9,644.3,28
	C643.3,28,643,38,643,74.5z"/>
<path d="M1094,219.5V401h49.5h49.5V219.5V38h-49.5H1094V219.5z"/>
<path d="M1306,50.6c-54.2,2.9-99.3,5.3-100.2,5.3c-1.7,0.1-1.8,3-1.8,47.1v47h25.5h25.5v131.5V413h48.5h48.5V276V139h27h27V92
	c0-25.9-0.3-46.9-0.7-46.9C1404.8,45.2,1360.2,47.6,1306,50.6z"/>
</svg>
